<?xml version="1.0" encoding="UTF-8"?>
<svg xmlns="http://www.w3.org/2000/svg" xmlns:xlink="http://www.w3.org/1999/xlink" viewBox="0 0 48 48" width="48px" height="48px">
<g id="surface187112860">
<path style=" stroke:none;fill-rule:nonzero;fill:rgb(93.725491%,84.705883%,11.372549%);fill-opacity:1;" d="M 24 47.519531 C 11.011719 47.519531 0.480469 36.988281 0.480469 24 C 0.480469 11.011719 11.011719 0.480469 24 0.480469 C 36.988281 0.480469 47.519531 11.011719 47.519531 24 C 47.519531 36.988281 36.988281 47.519531 24 47.519531 Z M 24 47.519531 "/>
<path style=" stroke:none;fill-rule:nonzero;fill:rgb(100%,83.92157%,0%);fill-opacity:1;" d="M 7.261719 40.738281 L 7.261719 7.261719 L 40.738281 7.261719 L 40.738281 40.738281 Z M 7.261719 40.738281 "/>
<path style=" stroke:none;fill-rule:nonzero;fill:rgb(0%,0%,0.392157%);fill-opacity:1;" d="M 29.148438 32.320312 C 29.792969 33.367188 30.492188 34.367188 31.976562 34.367188 C 33.21875 34.367188 33.871094 33.75 33.871094 32.894531 C 33.871094 31.871094 33.195312 31.507812 31.828125 30.910156 L 31.078125 30.589844 C 28.910156 29.671875 27.472656 28.519531 27.472656 26.085938 C 27.472656 23.847656 29.1875 22.140625 31.867188 22.140625 C 33.777344 22.140625 35.148438 22.800781 36.136719 24.535156 L 33.800781 26.027344 C 33.285156 25.109375 32.730469 24.746094 31.867188 24.746094 C 30.988281 24.746094 30.429688 25.304688 30.429688 26.027344 C 30.429688 26.925781 30.988281 27.289062 32.277344 27.84375 L 33.027344 28.164062 C 35.582031 29.25 37.019531 30.359375 37.019531 32.855469 C 37.019531 35.546875 34.894531 37.019531 32.042969 37.019531 C 29.253906 37.019531 27.671875 35.621094 26.789062 33.886719 Z M 18.375 32.398438 C 18.847656 33.238281 19.5625 33.886719 20.589844 33.886719 C 21.574219 33.886719 22.140625 33.5 22.140625 31.988281 L 22.140625 22.140625 L 25.238281 22.140625 L 25.238281 32.464844 C 25.238281 35.59375 23.421875 37.019531 20.769531 37.019531 C 18.375 37.019531 16.644531 35.394531 15.941406 33.886719 Z M 18.375 32.398438 "/>
</g>
</svg>
