<?xml version="1.0" encoding="UTF-8"?>
<svg xmlns="http://www.w3.org/2000/svg" xmlns:xlink="http://www.w3.org/1999/xlink" viewBox="0 0 48 48" width="48px" height="48px">
<g id="surface187212162">
<path style=" stroke:none;fill-rule:nonzero;fill:rgb(100%,100%,100%);fill-opacity:1;" d="M 24 48.238281 C 10.613281 48.238281 -0.238281 37.386719 -0.238281 24 C -0.238281 10.613281 10.613281 -0.238281 24 -0.238281 C 37.386719 -0.238281 48.238281 10.613281 48.238281 24 C 48.238281 37.386719 37.386719 48.238281 24 48.238281 Z M 24 48.238281 "/>
<path style=" stroke:none;fill-rule:nonzero;fill:rgb(0.784314%,46.666667%,74.117649%);fill-opacity:1;" d="M 24.011719 6.328125 C 22.566406 6.335938 21.5625 6.460938 20.351562 6.671875 C 16.773438 7.292969 16.121094 8.601562 16.121094 11.015625 L 16.121094 14.699219 L 24.492188 14.699219 L 24.492188 16.558594 L 11.757812 16.558594 C 9.308594 16.558594 7.160156 17.714844 6.480469 20.484375 C 5.714844 23.660156 5.679688 25.652344 6.480469 28.96875 C 7.089844 31.445312 8.433594 33.300781 10.886719 33.300781 L 14.261719 33.300781 L 14.261719 28.554688 C 14.261719 25.792969 16.761719 23.070312 19.625 23.070312 L 26.351562 23.070312 C 28.699219 23.070312 31.003906 21.339844 31.003906 19 L 31.003906 11.015625 C 31.003906 8.746094 29.367188 7.050781 27.082031 6.667969 C 27.136719 6.664062 25.445312 6.324219 24.011719 6.328125 Z M 19.378906 10.050781 C 20.140625 10.050781 20.773438 10.679688 20.773438 11.445312 C 20.773438 12.222656 20.140625 12.839844 19.378906 12.839844 C 18.597656 12.839844 17.984375 12.222656 17.984375 11.445312 C 17.984375 10.683594 18.597656 10.050781 19.378906 10.050781 Z M 19.378906 10.050781 "/>
<path style=" stroke:none;fill-rule:nonzero;fill:rgb(100%,75.686276%,2.745098%);fill-opacity:1;" d="M 23.113281 41.671875 C 24.558594 41.664062 25.5625 41.539062 26.773438 41.328125 C 30.351562 40.707031 31.003906 39.398438 31.003906 36.984375 L 31.003906 33.300781 L 22.632812 33.300781 L 22.632812 31.441406 L 35.367188 31.441406 C 37.820312 31.441406 39.964844 30.285156 40.644531 27.515625 C 41.414062 24.339844 41.445312 22.347656 40.644531 19.03125 C 40.035156 16.554688 38.691406 14.699219 36.238281 14.699219 L 32.863281 14.699219 L 32.863281 19.445312 C 32.863281 22.207031 30.363281 24.929688 27.5 24.929688 L 20.773438 24.929688 C 18.425781 24.929688 16.121094 26.660156 16.121094 29 L 16.121094 36.984375 C 16.121094 39.253906 17.757812 40.949219 20.042969 41.332031 C 19.988281 41.335938 21.679688 41.675781 23.113281 41.671875 Z M 27.746094 37.949219 C 26.984375 37.949219 26.351562 37.320312 26.351562 36.554688 C 26.351562 35.777344 26.984375 35.160156 27.746094 35.160156 C 28.527344 35.160156 29.144531 35.777344 29.144531 36.554688 C 29.144531 37.316406 28.527344 37.949219 27.746094 37.949219 Z M 27.746094 37.949219 "/>
</g>
</svg>
