<?xml version="1.0" encoding="UTF-8"?>
<svg xmlns="http://www.w3.org/2000/svg" xmlns:xlink="http://www.w3.org/1999/xlink" viewBox="0 0 48 48" width="48px" height="48px">
<g id="surface187528492">
<path style=" stroke:none;fill-rule:nonzero;fill:rgb(100%,100%,100%);fill-opacity:1;" d="M 24 48 C 10.746094 48 0 37.253906 0 24 C 0 10.746094 10.746094 0 24 0 C 37.253906 0 48 10.746094 48 24 C 48 37.253906 37.253906 48 24 48 Z M 24 48 "/>
<path style=" stroke:none;fill-rule:nonzero;fill:rgb(49.411765%,34.117648%,76.078433%);fill-opacity:1;" d="M 23.210938 8.195312 C 17.980469 8.195312 13.726562 13.941406 13.726562 21 C 13.726562 24.820312 14.976562 28.246094 16.949219 30.589844 C 16.914062 30.757812 16.886719 30.933594 16.886719 31.109375 C 16.886719 32.421875 17.949219 33.480469 19.257812 33.480469 C 20.570312 33.480469 21.628906 32.421875 21.628906 31.109375 C 21.628906 29.800781 20.570312 28.742188 19.257812 28.742188 C 19.011719 28.742188 18.777344 28.789062 18.550781 28.859375 C 17.050781 26.949219 16.097656 24.136719 16.097656 21 C 16.097656 15.246094 19.289062 10.566406 23.210938 10.566406 C 26.242188 10.566406 28.828125 13.371094 29.851562 17.296875 C 30.738281 17.570312 31.617188 17.914062 32.480469 18.332031 C 31.570312 12.546875 27.761719 8.195312 23.210938 8.195312 Z M 23.210938 8.195312 "/>
<path style=" stroke:none;fill-rule:nonzero;fill:rgb(49.411765%,34.117648%,76.078433%);fill-opacity:1;" d="M 33.09375 20.90625 C 29.972656 19.015625 26.476562 18.183594 23.464844 18.566406 C 23.03125 18.027344 22.375 17.679688 21.628906 17.679688 C 20.320312 17.679688 19.257812 18.738281 19.257812 20.046875 C 19.257812 21.359375 20.320312 22.417969 21.628906 22.417969 C 22.632812 22.417969 23.488281 21.792969 23.832031 20.910156 C 26.296875 20.609375 29.214844 21.328125 31.863281 22.933594 C 36.921875 26 39.503906 31.285156 37.617188 34.714844 C 36.964844 35.90625 35.8125 36.75 34.285156 37.15625 C 32.480469 37.640625 30.328125 37.46875 28.179688 36.742188 C 27.515625 37.351562 26.796875 37.925781 26.027344 38.453125 C 28.042969 39.335938 30.132812 39.800781 32.085938 39.800781 C 33.066406 39.800781 34.011719 39.683594 34.898438 39.445312 C 37.0625 38.867188 38.722656 37.625 39.695312 35.859375 C 42.1875 31.328125 39.222656 24.621094 33.09375 20.90625 Z M 33.09375 20.90625 "/>
<path style=" stroke:none;fill-rule:nonzero;fill:rgb(49.411765%,34.117648%,76.078433%);fill-opacity:1;" d="M 32.691406 27.945312 C 32.691406 26.640625 31.632812 25.578125 30.320312 25.578125 C 29.011719 25.578125 27.949219 26.640625 27.949219 27.945312 C 27.949219 28.472656 28.132812 28.957031 28.425781 29.351562 C 27.414062 31.5625 25.464844 33.75 22.84375 35.335938 C 19.789062 37.191406 16.378906 37.867188 13.714844 37.15625 C 12.1875 36.746094 11.035156 35.902344 10.382812 34.714844 C 9.035156 32.269531 9.96875 28.886719 12.445312 26.03125 C 12.1875 25.128906 12 24.183594 11.886719 23.207031 C 7.878906 27 6.269531 32.15625 8.304688 35.859375 C 9.277344 37.625 10.9375 38.867188 13.101562 39.445312 C 13.988281 39.683594 14.933594 39.800781 15.914062 39.800781 C 18.558594 39.800781 21.449219 38.957031 24.074219 37.367188 C 27.105469 35.527344 29.355469 32.960938 30.558594 30.285156 C 31.753906 30.164062 32.691406 29.167969 32.691406 27.945312 Z M 32.691406 27.945312 "/>
</g>
</svg>
